<svg xmlns="http://www.w3.org/2000/svg" xmlns:xlink="http://www.w3.org/1999/xlink" width="256" height="256" preserveAspectRatio="none">
  <defs>
    <path id="a" fill="#262424" d="M256 256V0H0v256h256Z"/>
    <path id="c" fill-opacity=".3" d="M329.6 173h.2q-4.7-29.9-29.2-48-24.6-18.2-54.7-13.5l-26.4 4h-1.2q-16.7.6-37.5-13-1.9-1.5-4.2-2.7-2.1-1.4-3.9-3.1-9.3-9.4-9.3-22.6 0-13.2 9.3-22.6l.3-.2q9.2-9.4 22.4-9.4 4.7 0 8.7 1l-21.8 21.6q-6.2 6.2-6.3 14.8 0 8.7 5.8 14.9 6.2 6.1 14.8 6.3 8.6 0 14.8-6.1l39.3-38.9q5.8-5.5 6.3-13.6.4-8.1-4.6-14.4-2.2-2.7-5-5.5l-.2-.2Q225.8.1 195.4 0q-30.4.1-51.8 21.8l-.3.2q-21.6 21.5-21.6 52.1t21.6 52l.3.3q3.5 3.6 7.3 9.2 14 21.8 11.8 43.7v1q-.6 4.4-1.8 8.4v.5q-3.2 13.2-14.6 20-11 6.9-23.6 3.4-.3 0-.8-.3-12.8-2.8-19.5-14.2-2.4-3.8-3.6-8.1l29.8 7.7q8.3 2.2 15.8-2.3 7.4-4.4 9.6-12.8 2.2-8.3-2.3-15.8-4.4-7.5-12.7-9.7l-53.5-13.8q-7.5-1.9-14.5 1.5-6.9 3.6-10 10.6-1.8 4.7-2.5 9.4 0 .3-.2.5-6.8 28.9 8.3 54.4 15.8 26.5 46 33.5 29.2 7.7 55.2-8l.1-.2q23.8-14.6 31.8-40.8 1.7-5.5 3-11.1l1.9-7.1q1.8-6.3 6.6-13.2 1.5-1.9 3.6-4 6.6-6 17-10.6 7.3-3.3 20.4-5.3 13-2 23.7 5.7l.2.2q10.5 7.8 12.5 20.7v.2q2.3 13.4-5.7 24.1-2.6 3.7-6 6.3l-4.3-30.6q-1.3-8.4-8.4-13.6-6.8-5.2-15.3-4-8.5 1.3-13.6 8.2-5.2 7.1-3.9 15.5l7.9 54.8q1 7.8 6.8 12.8 6.1 5.2 13.8 5.2 5 0 9.6-1 29.5-4.6 47.2-29 17.9-24.8 12.9-55.3Z"/>
    <path id="d" fill="#2A4B1C" d="M329.6 173h.2q-4.7-29.9-29.2-48-24.6-18.2-54.7-13.5l-26.4 4h-1.2q-16.7.6-37.5-13-1.9-1.5-4.2-2.7-2.1-1.4-3.9-3.1-9.3-9.4-9.3-22.6 0-13.2 9.3-22.6l.3-.2q9.2-9.4 22.4-9.4 4.7 0 8.7 1l-21.8 21.6q-6.2 6.2-6.3 14.8 0 8.7 5.8 14.9 6.2 6.1 14.8 6.3 8.6 0 14.8-6.1l39.3-38.9q5.8-5.5 6.3-13.6.4-8.1-4.6-14.4-2.2-2.7-5-5.5l-.2-.2Q225.8.1 195.4 0q-30.4.1-51.8 21.8l-.3.2q-21.6 21.5-21.6 52.1t21.6 52l.3.3q3.5 3.6 7.3 9.2 14 21.8 11.8 43.7v1q-.6 4.4-1.8 8.4v.5q-3.2 13.2-14.6 20-11 6.9-23.6 3.4-.3 0-.8-.3-12.8-2.8-19.5-14.2-2.4-3.8-3.6-8.1l29.8 7.7q8.3 2.2 15.8-2.3 7.4-4.4 9.6-12.8 2.2-8.3-2.3-15.8-4.4-7.5-12.7-9.7l-53.5-13.8q-7.5-1.9-14.5 1.5-6.9 3.6-10 10.6-1.8 4.7-2.5 9.4 0 .3-.2.5-6.8 28.9 8.3 54.4 15.8 26.5 46 33.5 29.2 7.7 55.2-8l.1-.2q23.8-14.6 31.8-40.8 1.7-5.5 3-11.1l1.9-7.1q1.8-6.3 6.6-13.2 1.5-1.9 3.6-4 6.6-6 17-10.6 7.3-3.3 20.4-5.3 13-2 23.7 5.7l.2.2q10.5 7.8 12.5 20.7v.2q2.3 13.4-5.7 24.1-2.6 3.7-6 6.3l-4.3-30.6q-1.3-8.4-8.4-13.6-6.8-5.2-15.3-4-8.5 1.3-13.6 8.2-5.2 7.1-3.9 15.5l7.9 54.8q1 7.8 6.8 12.8 6.1 5.2 13.8 5.2 5 0 9.6-1 29.5-4.6 47.2-29 17.9-24.8 12.9-55.3Z"/>
    <path id="e" fill="#2E5522" d="M329.6 173h.2q-4.7-29.9-29.2-48-24.6-18.2-54.7-13.5l-26.4 4h-1.2q-16.7.6-37.5-13-1.9-1.5-4.2-2.7-2.1-1.4-3.9-3.1-9.3-9.4-9.3-22.6 0-13.2 9.3-22.6l.3-.2q9.2-9.4 22.4-9.4 4.7 0 8.7 1l-21.8 21.6q-6.2 6.2-6.3 14.8 0 8.7 5.8 14.9 6.2 6.1 14.8 6.3 8.6 0 14.8-6.1l39.3-38.9q5.8-5.5 6.3-13.6.4-8.1-4.6-14.4-2.2-2.7-5-5.5l-.2-.2Q225.8.1 195.4 0q-30.4.1-51.8 21.8l-.3.2q-21.6 21.5-21.6 52.1t21.6 52l.3.3q3.5 3.6 7.3 9.2 14 21.8 11.8 43.7v1q-.6 4.4-1.8 8.4v.5q-3.2 13.2-14.6 20-11 6.9-23.6 3.4-.3 0-.8-.3-12.8-2.8-19.5-14.2-2.4-3.8-3.6-8.1l29.8 7.7q8.3 2.2 15.8-2.3 7.4-4.4 9.6-12.8 2.2-8.3-2.3-15.8-4.4-7.5-12.7-9.7l-53.5-13.8q-7.5-1.9-14.5 1.5-6.9 3.6-10 10.6-1.8 4.7-2.5 9.4 0 .3-.2.5-6.8 28.9 8.3 54.4 15.8 26.5 46 33.5 29.2 7.7 55.2-8l.1-.2q23.8-14.6 31.8-40.8 1.7-5.5 3-11.1l1.9-7.1q1.8-6.3 6.6-13.2 1.5-1.9 3.6-4 6.6-6 17-10.6 7.3-3.3 20.4-5.3 13-2 23.7 5.7l.2.2q10.5 7.8 12.5 20.7v.2q2.3 13.4-5.7 24.1-2.6 3.7-6 6.3l-4.3-30.6q-1.3-8.4-8.4-13.6-6.8-5.2-15.3-4-8.5 1.3-13.6 8.2-5.2 7.1-3.9 15.5l7.9 54.8q1 7.8 6.8 12.8 6.1 5.2 13.8 5.2 5 0 9.6-1 29.5-4.6 47.2-29 17.9-24.8 12.9-55.3Z"/>
    <path id="f" fill="#BBCF97" d="M0 256h256V0H0v256m245.9-10.1H9.9V9.9h236v236Z"/>
    <path id="h" fill="#2A4B1C" d="M253.4 29.4q-2.2-2.6-5-5.4l-.2-.2Q226.8 2.1 196.4 2q-30.4.1-51.8 21.8l-.3.2q-21.6 21.5-21.6 52.1t21.6 52l.3.3q3.5 3.6 7.3 9.2 14 21.8 11.8 43.7v1q-.6 4.4-1.8 8.4v.5q-3.2 13.2-14.6 20-11 6.9-23.6 3.4-.3 0-.8-.3-12.8-2.8-19.5-14.2-2.4-3.8-3.6-8.1l29.8 7.7q8.3 2.2 15.8-2.3 7.4-4.4 9.6-12.8 2.2-8.3-2.3-15.8-4.4-7.5-12.7-9.7l-53.5-13.8q-7.5-1.9-14.5 1.5-6.9 3.6-10 10.6-1.8 4.7-2.5 9.4 0 .3-.2.5-6.8 28.9 8.3 54.4 15.8 26.5 46 33.5 29.2 7.7 55.2-8l.1-.2q23.8-14.6 31.8-40.8 1.7-5.5 3-11.1l1.9-7.1q1.8-6.3 6.6-13.2 1.5-1.9 3.6-4 1.6-1.5 3.5-2.9v-50.4q-16.7.6-37.5-13-1.9-1.5-4.2-2.7-2.1-1.4-3.9-3.1-9.3-9.4-9.3-22.6 0-13.2 9.3-22.6l.3-.2q9.2-9.4 22.4-9.4 4.7 0 8.7 1l-21.8 21.6q-6.2 6.2-6.3 14.8 0 8.7 5.8 14.9 6.2 6.1 14.8 6.3 8.6 0 14.8-6.1l39.3-38.9q5.8-5.5 6.3-13.6.4-8.1-4.6-14.4Z"/>
    <path id="g" fill="none" stroke="#72B740" stroke-linecap="butt" stroke-linejoin="miter" stroke-miterlimit="3" stroke-width="2" d="M245.9 9.9v236H9.9V9.9h236Z"/>
    <path id="i" fill="none" stroke="#DEF1AC" stroke-linecap="butt" stroke-linejoin="miter" stroke-miterlimit="3" stroke-width="4" d="M270.7 2.7v268H2.7V2.7h268Z"/>
    <g id="b">
      <path fill="#262424" d="M0 256 256 0H0v256Z"/>
      <path fill-opacity=".1" d="M256 0 0 256h256V0Z"/>
    </g>
    <g id="j">
      <path fill="#376329" d="M61 155.4q-1.8 4.7-2.5 9.4 0 .3-.2.5-4 17-.4 32.8 2.4 11 8.6 21.4l64.4-64.4-45.4-11.8q-7.5-1.9-14.5 1.5-6.9 3.6-10 10.6M254.8 31.2q-1-2-2.4-3.8-2.2-2.6-5-5.4l-.2-.2q-3.3-3.3-6.8-6.2Q221 .1 195.3.1 165 0 143.6 21.8l-.3.2q-21.6 21.5-21.6 52.1 0 25.7 15.2 44.9 3 3.7 6.4 7.2l.3.2q3.4 3.5 7 8.9l31.8-31.8-1.6-1q-1.9-1.5-4.2-2.7-2.1-1.4-3.9-3.1-3.5-3.5-5.8-7.7-3.6-6.7-3.6-14.9 0-13.2 9.4-22.6l.3-.2q9.2-9.4 22.4-9.4 4.7 0 8.7 1l-21.8 21.6q-6.2 6.2-6.3 14.8v.7q.2 8.2 5.8 14.2 2.7 2.7 5.8 4.1l67.2-67.1Z"/>
      <path fill="#2E5522" d="M219.5 115.5h-1.2q-16 .6-35.9-12l-31.8 31.8.3.3q14 21.8 11.8 43.7v1q-.6 4.4-1.8 8.4v.5q-3.2 13.2-14.6 20-11 6.9-23.6 3.4-.3 0-.8-.3-12.8-2.8-19.5-14.2-2.4-3.8-3.6-8.1l29.8 7.7q8.3 2.2 15.8-2.3 7.4-4.4 9.6-12.8 2.2-8.3-2.3-15.8-4.4-7.5-12.7-9.7l-8.1-2-64.4 64.4.1.2q15.8 26.5 46 33.5 29.2 7.7 55.2-8l.1-.2q23.8-14.6 31.8-40.8 1.7-5.5 3-11.1l1.9-7.1q1.8-6.3 6.6-13.2 1.5-1.9 3.6-4 1.6-1.5 3.5-2.9 2.8-2 6-4v-47.2l-4.8.8M257 41.9q.3-5.8-2.2-10.7l-67.2 67.1q4.1 2 9 2.2 8.6 0 14.8-6.1l39.3-38.9q5.8-5.5 6.3-13.6Z"/>
    </g>
  </defs>
  <use xlink:href="#a"/>
  <use xlink:href="#b"/>
  <use xlink:href="#c" transform="translate(5 5)"/>
  <use xlink:href="#d" transform="translate(1.5 2.5)"/>
  <use xlink:href="#e"/>
  <use xlink:href="#f"/>
  <use xlink:href="#g"/>
  <use xlink:href="#h"/>
  <use xlink:href="#i"/>
  <use xlink:href="#j"/>
</svg>
