<svg xmlns="http://www.w3.org/2000/svg" viewBox="0 0 500 500">
  <defs>
    <clipPath id="a">
      <path d="M77 497h257v53H77v-53z"/>
    </clipPath>
  </defs>
  <path d="M35.2 93.9c-1 0-2.1.5-2.9 1.9-.6 1.1-2.1 1.3-2.8 1-1.2-.3-2.6-.6-4.2.5-1.4 1-3 .2-2.7-1.7.3-1.9 1-3.5 2.8-4.6 3.9-2.2 1.2-3.8 3.3-6.1 2.2-2.3 1.7-3 1.6-6.1a22 22 0 0 1-16-9 28.5 28.5 0 0 1-7-17.8c-.5-7.3 0-12 3.1-18a25.2 25.2 0 0 1 12-12 33.3 33.3 0 0 1 16.7-3.6c5.2 0 8.6.4 11.6 2 3 1.8 5.6 3.9 7.3 3.9a6 6 0 0 0 3.7-1c.2 5.6-4.9 6-9.3 6.2-4.6 0-7.4-1.8-11.6-1-4.1.6-11 2.5-14.3 8.3-3.4 5.8-3.5 7.9-3.2 12.7.3 4.9 4.4 8.5 6.8 8.6 2.4 0 3-.7 5-2 2-1.4 12.6-14.5 16.2-17.4a17 17 0 0 1 11-4c3.8 0 4.8.2 8 1.4 3 1.3 5 3.7 7.4 5 1.3-.7 2.1-1.8 3.3-2.6 4.2-3.1 6.3-4 11.3-3.5 2.9.4 6.5 2 8.7 3.8 3.8 3.4 7 8 9.5 11.5 2 2.8 4.3 6 7.7 7 3.7 1.2 6.4-3.5 6.8-6.1.2-1.5.5-2.9.5-4.5a19 19 0 0 0-.6-5.3 20 20 0 0 0-2.2-4.8 17 17 0 0 0-6.1-6 19.5 19.5 0 0 0-6.6-2c-2.5 0-4.4.8-6.6 1-2.9.2-7.8.8-10-1.3-1.3-1.4-1.5-2.3-1.7-4a4 4 0 0 0 2.2.8c1.7.2 3.3-1.2 4.7-2 1.2-.7 2.8-2 4.3-2.6a30 30 0 0 1 23.3 2.4A28.5 28.5 0 0 1 138.8 40a42.6 42.6 0 0 1 .1 18.2 36 36 0 0 1-8.1 13.4 20.8 20.8 0 0 1-11 5.2l.4 2.4c.3 1 .9 2 2 1.7.6-.2.9-.3 1.5.3.6.5.3 2.6-1.5 3.6-1 .6-1.8.6-3.3.7a31.2 31.2 0 0 1-5.3-.3c-1.5-.3-2.4-1.6-4.2-1.7-2.7-.3-4.7-2.3-6.9-3.7l-1.7-.8.8 2.6c.2.8.1 1.5.2 2.2l.4 1.7c.5.4.6 1 1.3 1.2.7.2 1.9-.2 2.6-.3s1.3-.5 1.8-.3c.6 0 1.2.5 1.6.9.5.4 1 .4 1.3 1.4.4 1 .8 3 .8 4.3 0 1.3 0 2.5-.4 3.6s-.8 1.5-1.9 2.6c-1 1-2.8 2.5-4.5 3.6.3.4.5.9 1 1.4.5.5 1.5 1 2 1.6.4.5.6 1 .6 1.5 0 .6 0 1.4-.5 2.1-1.2 1.7-2.6 2-4.4 2.7.3 1.9.5 3.2.1 5-.1.8-.5 2.5-1.5 3-1 .4-2.7.2-3.8.4-1.2.1-1.8.3-2.6.5-.6.8-1.4 1.6-1.7 2.3-.3.7-.2 1 0 1.6l1.3 2.6c.2.9.3 1.8 0 2.6-.2.9-.5 1.4-1.2 2.2-.7.7-2.1 1.3-2.9 2-.6.5-1.4.6-1.1 1.6a7.3 7.3 0 0 0 3.6 4.1 5 5 0 0 0 3.2-.2c-.1 1.1-1.1 2-1.8 2.7a10.4 10.4 0 0 0 4.7-2.8c-.3 1.1-1.6 3-3.6 4.5-1.9 1.6-1.8 1.3-2.8 2 1.7.3 3.4.2 4.7 0a10.4 10.4 0 0 1-7.6.8c-1.4-.3-2.7-1.7-4.5-2.6.2.7.3 1.4 1 2.1.8.7 1.9 1 3 1.6-1.5-.2-3-.2-4.5-.6a16 16 0 0 1-2.6-.8c-.9-.4-1.5-1-2.2-1.5.4.6.5 1.4 1 2 .6.5 1.6.7 2.3 1-.8 0-1.5.2-2.3 0-.8-.2-1.6-.5-2.5-1.2a17.8 17.8 0 0 1-4.4-4.7c-.2-.7.2-1.2.3-1.9-.5.3-1.2.5-1.5 1-.4.5-.8 1-.5 1.8a7 7 0 0 0 1.4 2.7c-1.6-1.3-2.5-1.8-2.9-3.4-.4-1.5.5-2.9 1.2-4 .4-.6 1-1 1.3-1.7-.7-.7-1.6-1.3-2.2-2-.7-1-1-2-1.6-2.8-.6-.8-1.5-1.3-2.2-2 .6 1.5 1.7 3.2 2 4.3.2 1-.3 1.8-.7 2.4-.4.6-1 .7-1.6 1-.6.4-1.6.2-2 .7-.3.5-.4 1.4 0 2l1.4 2.1c-.5-.3-1.4-1-1.8-1.6-.4-.5-1-1-1-1.7-.2-.7-.2-1.4.2-2 .5-.6 1.8-.9 2.4-1.3.5-.6.9-.9.8-1.5 0-.7-.6-1.1-1.2-1.6-1.6-1.2-3.7-2.3-5.1-3.8a5.2 5.2 0 0 1-1.4-2c-.1-.7 0-1.1.4-1.8s1.8-1.7 2-2.5c.1-.8-.6-1-1.2-1.2-.6-.2-1.8.2-2.3-.4-.6-.4.1-1.4-.5-2-.7-.5-2.1-.2-2.9-.8a4 4 0 0 1-1.3-2.1 4.6 4.6 0 0 1-.1-2.5c.1-.6.7-.7 1-1 .3-.3.6-.6.2-1-.4-.6-1.8 0-2.6-.7-.8-.6-.4-2-1-2.7-.5-.6-1.5-.4-2-.6-.6-.2-.8.6-1.2-.6-.3-1-.3-4.4-.7-5.6-.5-1.2-1.3-.1-1.8-1.3-.4-1.2 0-3.2-.2-5l-.8-5a17.7 17.7 0 0 1-7.9 3c-.3 7.6-1 12.1 1.6 20.5S46.6 127 53.6 134a43.7 43.7 0 0 1-16.5-19.8c-2.7-7.3-2.2-13.3-2-20.3Zm49.3-3c.7 0 1.6.2 2.1.5l1.5 1a8.8 8.8 0 0 1 2.4 4.2c.2 1 .2 2.3.3 3.5-.3-1-.5-2.2-1-3.2A8 8 0 0 0 86 93c-.6-.3-1-.2-1.2-.2 0 .2.3.5.3.8 0 .3 0 .9-.6 1.2-.9.4-1.9.1-2.6-.5a2.3 2.3 0 0 1-.5-2.6c.4-1 2-1 3-1Zm-9-1.6c.2-1.8.8-3.3 2.4-4.2.9-.5 2.2-1 3.4-1.2 1.1-.2 4 0 5.6.7 1.3.6 2.2 1.5 3.3 2.2 1.2.7 2 1.1 3 1.9 1.7 1.1 2.6 2.4 3.8 3.1.5.4 1.3.4 2 .6a3 3 0 0 1-1.9.1c-.7-.2-1.8-1-2.4-1.4a17 17 0 0 0-2.7-2c-.7-.4-1.8-.8-2.6-1.4l-2.8-1.9c-1-.5-2.6-.7-3.6-.7-1.4 0-3.4.3-4.5 1.3-1 1-1.5 1.9-1.3 3.1l1.1-1.4c.8-.7 1.8-.8 2.9-.6 1.2.1 1.8.8 2.1 2-.2-.3-.7-.7-1.1-.8-.9-.3-1.6-.2-2.4.2-1 .6-.7 1.3-.9 2.2 0 .4-.2.7-.3 1.1-.3 0-.7-.3-1-.5v1.2l.6 1.5c-.8-.7-1.5-1.3-2-2.2-.4-.9-.7-1.9-.6-2.8ZM76.8 76c.6-.7.7-1.8 1-2.8 0 1.2.1 2.5-.4 3.4-.6.8-1.6.7-2.5 1 .6-.6 1.4-.8 2-1.6ZM64.6 93.8c.7-.6 2.4-.1 3.7 0l-2.8.7c0 .3 0 .7-.2 1l-1 .5c0-.8-.3-1.7.3-2.2ZM73.9 57c.8.4 1.8 1 2.5 1s.9-.5 1.3-.7c.7 2 1.4 4.4 2.5 6.3.4.8.7.4 1 1.2.4.8.6 2.5.9 3.5l1.1 2.7c-.9-1.4-2.2-3.2-2.7-4.3-.5-1.2-.2-1.3-.6-2.3l-2-4.2h-1.5c-.3-.1-.2-.5-.5-.7-.4-.3-1-.2-1.4-.6-.5-.4-.5-1.2-.6-2Zm-4.2 10.4H72c.7 0 1.2-.2 1.8-.3-.1-1 0-3-1-3.6-.6-.5-3.1-.1-3.8 0-1.6.3-3.4 1.3-4.8 1.8a11.5 11.5 0 0 1 8.8-2.8c.5 0 .6.3.9.7 1 1.4 1 2.6 1.3 4.3l.7 1 .4 1.6c-.3-.3-.1-.8-.9-1-.7-.4-1.8 0-2.8 0 .7.5 1 1 1.1 2.1 0 1.3-1 2.2-2.2 2.3-1.6.2-2.4-.2-3-1.6-.3-.5-.1-1.3-.1-1.8-2 0-1.9 0-3.3 1.2a6.3 6.3 0 0 0 2.5 2.4c.7.4 1.5.7 2.3.9 1 .1 2.3.3 3.3.1a3 3 0 0 0 2-1c.7-.6.8-1.6 1-2.2 0 .6 0 1.5-.3 2-.8 1.5-2.1 2-3.7 2s-3.4-.4-4.9-1c-1.1-.5-3-1.8-3.4-3-.3-.7 0-1.7 0-2.5 1.5-1 1.9-.9 3.7-1.2.8 0 1.4-.4 2-.5Zm-9.3-7.1c0-.6.1-.6.2-1-1.4-.3-2 .6-2.9 2.4-.3.6 0 1-.3 1.4-.3.4-.9.4-1.4.8-.6.3-1 1.1-1.6 1.5-1 1-2.5 1.4-3.7 2 .8-.6 2.5-1.5 3-2.4.2-.5.2-1.3.6-1.8.5-.4.6-.7 1.2-.8.5-.1.3-.7.5-1.3.2-.5.5-.9.9-1.3.4-.5.9-1.3 1.6-1.6.7-.3 2 0 2.5-.1.5-.2.2-.6.6-.9.4-.2 1.3-.1 1.8-.4 1-.5 1.4-1.2 2-2 .1 1.8 0 3-.6 4.8a7 7 0 0 1-3.5 4.1c-.7.5-1.4.6-2 .8.3-.5.8-.7 1-1.4.2-.7 0-2.2.1-2.8ZM94 69.1c-1 0-1.2 0-2 .5l1.3 2c0-1.3.1-1.6.7-2.5Zm-2.5-1c1.3-.5 2.5-1 4-1.1h2c.6-.7 1.3-1.3 1.5-2.1.2-.6 0-3.2-.2-4-.8-2-1.6-2-2.7-3.2-.8-.8-.9-2-1-3.5l-.6-1.7c-1.4-.3-3-.4-4.7-.3.8-.7 1.5-1.5 1.8-2.7a5 5 0 0 0-.6-3.6c-.7-1-1.7-2-2.7-3-1-.8-2.4-1.5-3.3-2.2 1.2-.4 2.4-1 3.6-1.3 3.1-.6 5.7.3 8.7 2 1.8 1.2 3.2 2.2 5 4s4.1 5.5 5.9 7.6c1.7 2 3.1 3.6 4.7 5 1.5 1.1 3 1.5 4.4 2.2l2.2 2.5 1.9-2.3 3 .3.6-3.3 2.7-.7-.4-4.5 1.9-1.4-1.5-2.8 1.5-3-2-3.6.8-3.3-2.2-2-.3-3.5-3.1-1.2-1.3-3.1h-3.6l-1.7-2.4-2.4.2-2.6-.3-1.6-1.1-2.1 1.5-2.7-1.4-5.2 2 3.4-3 3.6-.5 2.7-.7 3.6 1.2 3.3-.9 3 1.9 3.4-.2 1.5 3 3.4.3 1.7 3.2 2.1 1.1.5 4.2 1.8 1.7-.7 3.6 2 2.7-2 3 2.3 1.9-2.7 2.4 2.8 3-3.4 1 2.2 3.1-2.8.6 1.9 3.4h-3.2l1.6 2.5-3.4-.4.8 3.6-2.6-2.3-.9 4.5-1.7-3.2-1 4-2.2-3v4.3l-2.4-3.8c.5 2.2.4 4.5 1.8 6.5 4.4-.5 7.3-1.6 10.6-4.9 3.1-3 6.8-9 7.8-13a43.3 43.3 0 0 0 0-17.1c-1-4.4-2.5-6.4-5-10-2.3-2.5-4.7-5.2-7.7-7a28.8 28.8 0 0 0-21.5-2.1c-2.9 1-5.2 3.4-8.2 4.5-1 .4-1.8.4-2.5 0 .7 1.5 1.5 2.2 3.4 2.7 1.3.4 4.6.2 6.7 0 2.4-.3 3.7-1 7-1 3 0 5.6 1.3 7 2.1a17.3 17.3 0 0 1 8.7 11.4 24 24 0 0 1 .2 10.4c-1 3.7-3.3 7.5-7.8 7-2.8-.4-7-5.7-8.4-7.6-2.9-3.9-5.7-8.2-9.4-11.4-2-2-5.1-3.3-8-3.6-5.5-.5-7.1.5-11.3 4 .9.2 1.7.4 2.6.8 1.9.8 3.6 2 5.2 3.4 1.5 1.5 2.2 2.4 2.3 4.6 0 1.4-1.1 2.6-2.2 3.6-.7.6-1.5 1.1-2 1.7-.7.6-1.6 1.3-.7 2.3.3.4.9.7 1.4 1 .7.6.4 2.8-.7 3.4a3.4 3.4 0 0 1-3.9-.3c1.4-.3 2.2-.5 2.2-1.6 0-.6-.9-1.2-1.6-1.5-2-.9-3.4-.7-5.4-2.1-2-1.4-2-2.2-2.5-4.4-1 0-1.8 0-3 .5-1.3.4-2.7 1.4-3.8 1.7-3 .6-3.5.4-5 0-2.8-.7-6.4.5-10 1.6-.6.2-3 0-4.6.6a30.5 30.5 0 0 0-8 4.7A42.7 42.7 0 0 0 32 79.2c-.2 2.7.6 4.5-1.1 5.8-1.8 1.3-1.7 4.7-2.3 5.7-.5.9-1.2.5-2.5 1.8-1.2 1.4-1.8 1.1-1.8 3.7 1-.8 2.6-1.6 4-1.6 1.2 0 1.2 1.6 4.3-1.6 1.7-1.6 5-1.7 7.1-2.4A22 22 0 0 0 50 83.9a26.6 26.6 0 0 0 6.6-16c.1 1.3.3 2.7-.2 6s-1.6 7 .8 11.6l1.4 2.8c-.8-1.2-2.6-3.2-3-4.6l-1.3-3.1a24 24 0 0 1-6.9 7.9c-.1 1.8-.2 3.7.4 5.5.7 1.7-.3 3.8.2 5 .4 1.1 1.5.5 1.8 1.6.3 1.2-.2 3.6.4 4.7.5 1.1 1.8.5 2.5.8.6.4.8 1 1.2 1.4.3.5-.2 1.7.5 2 .7.4 1.8 0 2.5.4.8.4.9 1.2.7 2-.2.8-1 1.1-1.3 2a2 2 0 0 0 .1 2c.4.7 1.3 1.1 2.2 1.5 1 .3 2.2.1 3.1.6 1 .6 1.8 1.6 2.3 2.3.5.7.6 1.2.6 2s-.4 1.7-.8 2.4c-.4.8-1.3 1.7.1 3.1 1.4 1.4 1.4.8 2.2 1.7-.1-1.6-.7-2.9-.3-4 .5-1.3 2-1.5 2.7-2 .8-.6 1.2-1.3 1.8-2v2.4c-.2 1.3-.5 2.3 1.3 2.6.9 0 1.7-.5 2.6-.8-.5.8-1.3 1.5-1.5 2.5 0 1 0 2 .8 3 .6 1 1.8 1.8 2.7 2.4l2 1v2.9c.1.9.4 1.7 1 2.5s1.3 1.2 2.1 1.7c-.4-1-1.3-2-1.3-3 0-1.1.3-1.9 1.4-2.9 1-1 3.6-1.8 4.7-2.7a5.7 5.7 0 0 0 2-2.4c.4-1 .3-2.4.3-3.2.5 1.1.5 1.5.6 2.7.1 1.2-.7 2.9-1 3.7a5.7 5.7 0 0 0 2.8-2.9c.3.2.1.7.2 1.7l1.7-1.4c.5-.5 1-.9 1.3-1.6s.2-1.4 0-2.2c-.2-.7-1-1.7-1.6-2.5-.4-.9.1-1.7 0-2.8-.8-.1-1.7-.6-2.7-.4-1.1.1-2.4 1.3-3.4 1.4-1.2 0-1.8-1-2.7-1.3-1-.3-1.8-.3-2.8-.4 1.2-1.1 5.7-1.6 8.8-2.1a47 47 0 0 1 8-.8c1.3 0 2.9.4 3.7.2 1-.3.7-.9 1-1.5.7-1.8.3-3.3 0-5.1-2.5-.3-5-.7-7.6-.5-2.4.2-5.3 1.3-7.8 1.5-2.1 0-5.3-.5-7.2-1.6-2.3-1.4-4-4.4-4.7-5.4-1-1.5-2.3-4.6-3-6-.9-1.3-1-1.8-1.6-2.3-.7-.6-1.6-.6-2.4-1 .9 0 1.9-.2 2.7.3 1.2.7 2.6 3.6 3.3 4.8.8-2.7.6-3.7 3-5.2-2 2-2 3.6-2.4 6.1 1.5 2.6 3.7 6.6 6.5 7.8 1 .4 2.8.6 3.9.7 3.4.5 6.7-.6 10-1.5 2.5-.5 5-.3 8-.1 1 0 3.4-.5 4-1.6.2-.6.2-1.2-.2-1.9-.4-.5-1.4-.8-2-1.4-.5-.5-.8-1.1-1.2-1.7-2.3.4-4.2.6-6 .7 1.3-.6 2.5-.8 3.7-1.3a21.8 21.8 0 0 0 3.8-2c1-.7 1.6-1 2.4-1.8.7-.8 1.7-1.7 2.2-2.6.5-1 .6-2 .7-3.3 0-1.1 0-2.8-.6-3.8-.4-.9-1.3-1.2-2-1.4-.7-.3-1.2.3-1.9.4-.7 0-1.4.5-2.5 0a10 10 0 0 1-3.4-3c-1-1.6-1.8-4-3-6a97 97 0 0 0-6.5-9.3A14 14 0 0 1 90 67c-.2-1.8-.3-3.7.3-5.4.4-1.3 1-2.7 2.5-3.3.5-.2 1.2-.3 1.7 0 .5 0 1 .6.8 1.3-.2.7-.7.8-1 1a3.8 3.8 0 0 0-1 2H95c.7.1 1.2.6 1.6 1.5-.8-.7-1.2-1-2.1-1l-1.6.2c-.1.6-.2 1.4-.5 1.8-.3.6-.8.4-1 1a5 5 0 0 0-.1 2.1Zm6.8-.8.8.5c.4.2 1 .5 1.2 1.2.3.7.3 1.8.2 2.3-.2-.1-.6 0-.8-.3-.3-.3-.5-.8-.8-1-.4-.2-.7-.2-1-.2.2.5.3 1.1.2 1.6-.3 1.2-1 1.7-2 1.8l-1.6-.1.7 1.2c.9-.1 1.6-.1 2-.3.5-.3 1-.8 1.7-1 .6-.2 1.2-.2 1.9-.3-.6.4-1 .9-1.5 1.4l1.2 3.4c.8.5 1.7.8 2.7 1.5 1 .6 2.3 1.8 3.7 2.4 1.4.6 2.2 1 3.6 1.2s2.6 1.5 4 1.7c1.4.2 4 .2 5.2.1 1.2-.1 2.8-.8 3-2.1-1 .2-2.6 0-3.4-2-.4-.8-.3-2.4-.8-3.4s-1.3-1.4-2.2-2.6c-.9-1.3-2.4-3.3-3.2-5-.9-1.7-1-3.6-1.7-5.2-.7-1.5-1.8-2.7-2.6-3.9a13.4 13.4 0 0 0-6.3-5.6c-1.3-.6-3-.7-4.5-1.1-.6.3-1.5.6-1.6 1.3A3 3 0 0 0 97 57c.8 1 2.1 1.9 2.7 3.4.3.9.4 4 0 4.8-.2 1-1 1.4-1.5 2Zm.3 7.4c-.2.2-.5.5-1 .7l-1.5.3 2.4 4 2.3 4.1c0-.7 0-1.6-.2-2.3 0-.8-.4-1.5-.7-2.6l-1.3-4.2ZM76.4 46.5a17 17 0 0 0 .3 4.5c.4 1.5.7 2.2 1.9 3.1 2.1 1.7 3.6 1.4 5.3 2.4.7.4 1.8 1.1 2 2 .4.7-.1 1.6-.7 1.9 1 .2 2.2-1 1.7-2.2-.2-.7-1.4-1-1.7-1.5a2.3 2.3 0 0 1-.2-2c.3-1 2.5-2 3.3-3 1.2-1.3 1.6-2.4 1-4.2-1-2.4-4.7-4.4-7-5.4l-2.3-.7c1.6 1 3.3 1.7 4.2 3.8.7 1.8 0 2.5 0 4 0 .8 1 1 1.4 1.6.4.4.3.6 0 1.2 0-.5-.2-.9-.5-1.2-.7-.4-1.3-.3-1.6-1.2-.6-1.4.5-2.7-.7-4.2-.8-1.2-2-2.5-3.5-2.5-.6 0-1.2 0-2 .4l-1-1.3c-2-1.9-3.5-3.4-6.3-4.7a14.3 14.3 0 0 0-7.6-1.4A14.6 14.6 0 0 0 52 39.5c-3.8 3.3-13.7 16-16.1 17.6-2.4 1.6-3 2.2-6 2.2s-7.6-4.3-7.8-9.6c-.2-5.3-.2-7.2 3.5-13.5 3.6-6.4 10.3-8.3 15.2-9 5-.7 8 1 11.6 1s7.2-.5 8.3-3.4c-.5.3-1.2.6-3.1.5-2 0-4.7-2.4-7.8-4-3-1.4-6.5-1.6-10.8-1.6-4.5 0-10 .2-15.3 3.1a27.8 27.8 0 0 0-15.3 29C8.9 58.9 11 64 15 69a21.2 21.2 0 0 0 15.6 8.4l1.6-6.8-2.8 4V70L27 73.1 26 69l-2.1 3.4-1-4.7-3 2.4 1-4-4 .5 1.9-2.7h-3.6l2-3.6-3-.5 2.5-3.3-4-1.1 3.3-3.1-3.2-2.6 2.4-2-2.3-3 2.5-2.9-1-3.8 2.2-1.8.6-4.4 2.3-1.2 2.1-3.4 3.7-.3 1.9-3.1 3.7.2 3.6-2 3.6 1 4.2-1.3 3.1.7 4.1.6 4 3.1-6-2-3 1.4-2.6-1.6-1.7 1.2-3 .3-2.7-.2-2 2.5h-4L27 30.9l-3.6 1.3L23 36l-2.6 2 .8 3.5-2.2 3.7 1.7 3.2-1.6 3 2.2 1.4-.5 4.7 3.1.8.7 3.5 3.4-.4 2 2.4 2.7-2.5a29.2 29.2 0 0 0 10.4-7.7c4.2-4.6 6.6-8.8 12.2-12 4-2.1 7.3-3 11.8-2.1 4.3.7 5.7 3.2 8.9 6 .2-.7.3-.8.9-1.3l-.6 2.3ZM460 47s-1-25.5-30-25.6c-29.4 0-30 25.5-30 25.5h60Zm-39.6-13.1a3.6 3.6 0 1 1-7.2 0 3.6 3.6 0 0 1 7.2 0Zm26.3 0a3.6 3.6 0 1 1-7.2 0 3.6 3.6 0 0 1 7.2 0Z"/>
  <path d="M415.8 24.9c.1.1.4 0 .7-.1.3-.2.5-.5.4-.7l-5.6-7.9c-.1-.1-.5 0-.8.1-.3.2-.4.5-.3.7l5.6 7.9m28.2 0-.6-.1c-.3-.2-.5-.5-.4-.7l5.6-7.9c.1-.1.5 0 .7.1.3.2.5.5.4.7l-5.6 7.9m16.1 25.6h-60.5v50.9c0 2 1.7 3.7 3.7 3.7h53.1c2 0 3.6-1.6 3.6-3.6v-51m16.2 33.3a6.4 6.4 0 1 1-12.9 0v-29a6.4 6.4 0 1 1 12.9 0v29m-79.8 0a6.4 6.4 0 0 1-12.9 0v-29a6.4 6.4 0 0 1 12.9 0v29"/>
  <path d="M448.8 121.2a6.4 6.4 0 0 1-12.9 0v-29a6.4 6.4 0 0 1 12.9 0v29m-24.8 0a6.4 6.4 0 0 1-12.9 0v-29a6.4 6.4 0 0 1 12.9 0v29m-116.1 33.1c14.6-2.3 29.4-4.4 44-6.4v38.7l-44 .3v-32.6m-37.3 5.2c11-1.7 22.1-3.2 33.2-4.6v32c-11 0-22.1.3-33.2.2v-27.6m0 31 33.2.1v32.2c-11-1.7-22.1-3-33.2-4.6v-27.7m37.2.5H352v38.5a3338 3338 0 0 0-44.1-6.2l-.1-32.4m153.8-5.9c-.2-11.1 9.1-16.5 9.6-16.8a20.8 20.8 0 0 0-16.3-8.7c-7-.7-13.5 4-17 4s-9-4-14.7-3.8c-7.5.1-14.5 4.3-18.4 11-7.8 13.6-2 33.6 5.7 44.5 3.7 5.4 8.1 11.4 14 11.2 5.6-.2 7.7-3.6 14.6-3.6 6.8 0 8.7 3.6 14.6 3.5 6-.1 10-5.5 13.6-10.9 4.3-6.2 6-12.2 6.2-12.5-.1 0-11.8-4.5-12-17.9m-11.1-32.8c3-3.7 5.2-8.9 4.6-14a20 20 0 0 0-13.1 6.6 18.4 18.4 0 0 0-4.7 13.7c5 .4 10-2.5 13.2-6.3m-272-104.7 2-.8c.2-.1.4-.4.4-.6 0-2.3-.4-4.4-2-6.1-1.7-2-4-1.9-5.6.4a6 6 0 0 0-.6 1.3c-1 2.7-.8 5.4.5 8 .9 1.5 1.2 1.5 2.5.2v-.1c0-.2-.2-.3-.3-.4a5.1 5.1 0 0 1-.6-5c.2-.6.9-1.2 1.4-1.2.5 0 1.1.5 1.5 1 .4.5.5 1.1.6 1.7l.2 1.6Zm14 2.2 2.5 1c.3 0 .7-.1.9-.3 2.4-3.2 1.8-9-1.2-11.7a5 5 0 0 0-6.9.1c-2 2-2.7 4.4-2.5 7.1 0 .3.2.6.4.7l2.4.8c.3-1.2.5-2.4 1-3.6.3-1 1-1.7 2.2-1.6 1.1 0 1.7.8 2 1.8.8 2 .8 3.9-.7 5.7Zm-9.3 14c1.7 0 3.2-.5 4.7-1.3 1.7-1 3.5-1.7 5.1-2.7 1.2-.6 2.3-1.4 3.2-2.3 2-2 1.5-4.4-1-5.6l-1-.4-6.6-3c-.5-.3-1-.6-1.6-.7-2.9-1-5.5-.6-7.8 1.3l-5.2 4.2c-1.1.9-1.5 2-.7 3.3.6 1 1.4 1.8 2.3 2.5 1.2 1.1 2.7 2 4 3.1a7 7 0 0 0 4.6 1.7Zm25.2 40c-.6.5-1.2.8-1.6 1.4-.6.9-1.3 1.9-1.5 3-.5 2-1 4-1 6-.2 4.2-1 8.2-2.2 12.2-.6 2.2-1.2 4.5-1.3 6.8-.2 4.5 3.3 8 7.9 8a14 14 0 0 0 9.4-4.3c1-.8 1.7-1.8 2.6-2.7 2.4-2.5 5.5-4 8.5-5.5 1.5-.8 3-1.5 4.3-2.4 1.6-1.1 2-2.5 1-4.2a17 17 0 0 0-2.2-3.3 11 11 0 0 1-2.4-4.7l-1-4.1c-.7-1.9-2.2-2.8-4.1-3-.5-.1-1.1-.2-1.6 0-.6 0-1.1.3-1.6.5-1.5 1-3 2.2-4.6 2.8-3.8 1.6-6.7.1-8-3.8l-.6-2.8Zm-43.2 36c1 0 2 0 2.8-.3 4.9-1 7.2-5.5 5.1-10-.8-1.8-2-3.5-3.2-5-3.3-4-6.1-8.2-8.4-12.8-.6-1.1-1.1-2.3-1.9-3.3-.9-1.2-2-2.5-3.1-3.4-2.3-1.6-4.7-1.3-6.6.8l-2.3 3a8.3 8.3 0 0 1-4.3 3.1l-2.6 1c-1.9.9-3 2.4-2.8 4.5 0 1.2.2 2.5.4 3.7.3 2 .3 3.8-.4 5.6l-.6 2.4c-.4 2.6.6 4 3 4.7l4.1.7c4.6.4 9 1.3 13.2 3.5 2.4 1.2 5 1.8 7.6 1.9ZM170 122c.6.8 1.3 1.5 1.7 2.3a9.8 9.8 0 0 0 5.5 4.4l2.4.8c7.6 2 14.4 0 20.7-4.3.3-.2.5-.6.6-1 .9-2.7 1.5-5.6 1.6-8.5.2-2.7.6-5.3 1.1-8a8 8 0 0 1 4.4-5.6c.3-.1.5-.5.6-.9.6-2.7 2.1-3.8 5-3.4 2 .2 4 1 6 2.1 2 1.2 4 2.4 3.6 5.2.7.3 1 0 1-.7.3-1.7-.4-3.1-1.8-4.1-1.4-1.1-3-2-4.6-3-.7-.3-1-.6-.9-1.5.2-.8.3-1.7.3-2.5a26.7 26.7 0 0 0-8.6-18.7l-.6-.3-.2.3.9 1.1c2 2 3.4 4.1 4.5 6.5 1.8 3.8 2.7 7.8 1.8 12-.4 1.8-.5 1.8-2.3 1.6-.6 0-1-.3-1-.9-1-4.8-2.8-9.4-5-13.7-3.9-7.3-6.9-15-9.2-22.8l-.2-.5c-1.3.8-2.5 1.8-3.8 2.5-1.7 1-3.6 1.8-5.4 2.8-4 2.2-7.6 1.9-11-1.1l-1.3-1.1-2.2-1.5-.1.7-1.5 7.2a92 92 0 0 1-6 15c-2.1 4.3-4 8.8-4.7 13.7l-.5 4.7-.7-1a13 13 0 0 1-1.8-6.6c0-3.6 1-7 2.5-10.2l2.5-5.1.5-1.3-.4.1-1 1.6a40.8 40.8 0 0 0-5.6 13.3c-.9 5.3.2 9.8 4.5 13.3 1 .8 2.2 1.5 3.3 2.2 2.8 2 5.6 4 7.5 6.8.8 1.2 1.5 2.6 1.9 4 .5 2-.7 3.5-2.7 3.9-.4 0-.7 0-1.3.2Zm-.7-76.8c.3-3.4.2-6.8.7-10.2 1.5-9 7.2-14 16.4-14.3 2-.1 4-.1 5.9.2 5.5.8 9.4 3.8 11.7 9a54.8 54.8 0 0 1 2.6 19.7 22.8 22.8 0 0 0 5.4 16.1c2.5 3.2 5.1 6.4 7.5 9.8a44.5 44.5 0 0 1 7.7 16.1c1 4.4 1 8.9-.4 13.3-.1.5 0 .8.5 1.1a6 6 0 0 1 3 3.7l1.3 4.5c.4 1.2 1 2.3 1.7 3.3.9 1.5 2 2.8 2.7 4.3 1 2 .5 4-1.3 5.3-1.2 1-2.5 1.6-3.7 2.3l-4.1 2.1a20.5 20.5 0 0 0-6.4 5 17.8 17.8 0 0 1-8.2 5.6c-5.6 1.8-10.5-.5-12.8-6-.2-.2-.6-.5-.9-.5l-8.6-.9c-3.7-.5-7.3.2-11 .8-1.2.3-2.6.4-3.9.6-.3 0-.6.3-.7.5-2.3 4-6 5-10.2 4.6a19 19 0 0 1-6.7-1.7 39.5 39.5 0 0 0-14-3.6c-1.6-.2-3.2-.6-4.8-1.1-2.2-.8-3.2-2.5-3.1-4.8 0-1.3.3-2.6.7-3.8.5-1.6.6-3.1.4-4.7-.2-1.5-.5-2.9-.5-4.4 0-2.5 1.2-4.4 3.4-5.5 1-.6 2.2-1 3.3-1.4a6.7 6.7 0 0 0 3.2-2.3l2.8-3.6c.2-.2.3-.6.3-.8-.7-5.8.9-11.1 3.2-16.3a78.1 78.1 0 0 1 11.3-17.9 27 27 0 0 0 6.2-19.3l-.3-4.8h-.3"/>
  <path d="m173.6 54.5 1 1.2c1.2 1 2.4 2 3.8 2.9 1.9 1.1 4 1.3 6.1.7 3.4-1 6.5-2.7 9-5.3l.8-.4.2.3-.8 1a22 22 0 0 1-9.4 5 9 9 0 0 1-7.4-1.4l-3-2.6c-.4-.3-.5-.8-.7-1.2l.4-.2m10.7-5 .8-.3 1.3.6v.4l-1.3-.3-.8-.4m-5.1.5c.8-.7 1.4-1 2.2-.5-.6.3-1.1 1-2.2.5m-36.8 111.3v60.3h60.3v-60.3h-60.3Zm33 47c0 6-3.5 8.6-8.6 8.6a8.8 8.8 0 0 1-8.5-5.2l4.6-2.7c.9 1.5 1.7 2.9 3.6 2.9 1.9 0 3.1-.8 3.1-3.7V189h5.6v19.4Zm13.3 8.6c-5.3 0-8.7-2.5-10.3-5.8l4.6-2.6c1.2 2 2.7 3.4 5.5 3.4 2.4 0 4-1.2 4-2.8 0-2-1.6-2.6-4.2-3.8l-1.4-.6c-4.1-1.7-6.9-4-6.9-8.5 0-4.3 3.3-7.6 8.3-7.6 3.7 0 6.2 1.3 8.1 4.6L192 196c-1-1.7-2-2.4-3.7-2.4s-2.7 1-2.7 2.4c0 1.7 1 2.4 3.6 3.5l1.3.7c4.8 2 7.6 4 7.6 8.9 0 5-4 7.8-9.4 7.8ZM8.6 161.6a2.2 2.2 0 0 0-2.3 2.5L17.8 293a3.9 3.9 0 0 0 2.6 3l48.8 13.7c1.3.3 3.5.3 4.8 0l48.9-13.6a3.9 3.9 0 0 0 2.6-3.1L137 164c.1-1.3-.9-2.4-2.2-2.4H8.6zm104 29.5-.5 4.8-.3 3.3-.4 4.3-.2 1.9H51a2.2 2.2 0 0 0-2.2 2.5l1 11.8a2.8 2.8 0 0 0 2.7 2.5h55.2a2 2 0 0 1 2 2.2l-.5 4.7-3.4 38.2-.3 4c0 .6-1.2 1.6-2.5 2l-28.9 8-2.4.6-2.4-.6-28.9-8a3.8 3.8 0 0 1-2.5-3.2l-2-20.8c0-1.4 1-2.5 2.3-2.5h11.6c1.3 0 2.5 1.1 2.7 2.5l.7 8.1a3.8 3.8 0 0 0 2.6 3.1l13.5 3.7 2.4.7 2.4-.7 13.5-3.7a3.9 3.9 0 0 0 2.7-3l1.4-16.4c.1-1.4-.9-2.5-2.2-2.5h-52a2.8 2.8 0 0 1-2.7-2.5L31.1 196l-.4-4.8c0-1.1 1-2.1 2.3-2.1h77.2c1.4 0 2.5 1 2.3 2.1zm61.7 54.9c-1.1 0-2 .7-2 .7L151 258.9c-1.7 1-1.1 3 .3 3.9l15.6 9.3v20.5l-12.2-7.3v-17.2l-5.4-3.1v20.6c-.2 3 0 3 2.4 4.4l16.7 9.7c2.2 1.4 4.4.3 4.4-2.2V272c.3-2.1-.4-3.3-2.1-4.4l-12.1-6.7 15.7-9.4L190 261l-12.1 6.7c-1.7 1.1-2.4 2.3-2.1 4.4v25.5c0 2.5 2.1 3.6 4.3 2.2L197 290c2.4-1.4 2.6-1.4 2.4-4.4V265l-5.4 3v17.3l-12.2 7.3v-20.5l15.6-9.3c1.4-1 2-2.9.3-3.9l-21.3-12.2s-.9-.7-2-.7zm55.8 37c6.3 0 10.5-5.1 10.5-11.3 0-6.3-4.2-11.3-10.5-11.3H222v22.5h8.1zm-8.4 7.4-.1 15.6c0 1.2-1 2.2-2.2 2.2h-3.9c-1.1 0-2-1-2-2.2v-51c0-1.1.9-2 2-2H232c10.4 0 17.4 8.3 17.4 18.7 0 10.3-7 18.7-17.4 18.7h-10.2zm58.5-7.4v-22.6h-6.5c-6.2 0-10.4 5-10.4 11.3 0 6.2 4.2 11.2 10.4 11.2h6.5zm-7.7 7.6c-10.5 0-17.5-8.5-17.5-19 0-10.4 7-18.8 17.5-18.8h13c1.2 0 2.2 1 2.2 2.1v33.5c0 1.2-1 2.2-2.1 2.2h-13.1zm202.3-7.6v-22.6h-6.4c-6.3 0-10.5 5-10.5 11.3 0 6.2 4.2 11.2 10.5 11.2h6.4zm-7.6 7.6c-10.5 0-17.5-8.5-17.5-19 0-10.4 7-18.8 17.5-18.8h13c1.2 0 2.2 1 2.2 2.1v33.5c0 1.2-1 2.2-2.1 2.2h-13.1zm-44.4-18.9c0-10.5 7-18.9 17.5-18.9h3.7c1.1 0 2 1 2 2.1v3.4a2 2 0 0 1-2 2.1h-2.5c-6.3 0-10.5 5-10.5 11.3v16.2a2 2 0 0 1-2 2.1h-4c-1.2 0-2.2-1-2.2-2.1v-16.2zM351.3 253c-10.4 0-17.3 8.3-17.3 18.7 0 10.3 7 18.7 17.3 18.7H366c1.1 0 2-1 2-2.1v-51.1c0-1.2-.9-2.2-2-2.2h-4c-1.1 0-2 1-2 2.2v15.7h-8.8zm.8 30c-6.2 0-10.4-5.1-10.4-11.3 0-6.3 4.2-11.3 10.4-11.3h8v22.5h-8zm43.6-22.5a11.1 11.1 0 1 0 0 22.3 11.1 11.1 0 0 0 0-22.3m19 11.2a19 19 0 1 1-38 0 19 19 0 0 1 38 0m-100.2-11.2c2 0 4.4 2.3 4.4 4.4v22.7c0 1.2 1 2.1 2.1 2.1h4.2c1.2 0 2.2-1 2.2-2.1v-22.4c0-7.2-3.9-12.4-13.6-12.4l-16.9.1c-1.1 0-2 1-2 2.1v32.7a2 2 0 0 0 2 2.1h4.1a2 2 0 0 0 2.1-2v-27.3h11.4z"/>
  <g clip-path="url(#a)" transform="matrix(2.05928 0 0 -2.05928 -162.4 1429.4)">
    <path d="M211.6 512.6c0-.3-.3-.6-.6-.6h-10.2c-.3 0-.5.3-.5.6v7.3c0 .3.2.6.5.6H211c.3 0 .6-.3.6-.6v-7.3zm-.5 10h-10.4a2.7 2.7 0 0 1-2.7-2.6v-7.4c0-1.5 1.2-2.8 2.7-2.8h10.4c1.5 0 2.7 1.3 2.7 2.8v7.4c0 1.5-1.2 2.7-2.7 2.7m-119 11.1v-9.6h-2.3v12.9h2l9.6-9.4v9.4h2.4v-12.9h-1.9l-9.8 9.6zm23.9 0v-9.6h-2.4v12.9h2l9.7-9.4v9.4h2.3v-12.9h-1.8l-9.8 9.6zm49.4 0v-9.6h-2.3v12.9h2l9.6-9.4v9.4h2.4v-12.9h-1.9l-9.8 9.6zm-56 3.2h.5v-12.8h-2.4v12.9h2zm34.4 0h.5v-2h-5.8v-10.7h-2.4V535h-5.8v2.2h13.5zm15.2 0h.5v-2h-10.2v-3h8v-2.2h-8v-3.3h10.2v-2.3H147v12.9h12zm31.3-10.5H183v8.4h7.3c2.3 0 3.1-2.3 3.1-4.2 0-2-.8-4.2-3-4.2m3.8 8.7a4.8 4.8 0 0 1-4 1.9h-9.5v-12.9h9.6a5 5 0 0 1 4 2 7.4 7.4 0 0 1 1.3 4.5c0 1.8-.5 3.4-1.4 4.5m17.4-8.2c0-.3-.3-.5-.6-.5h-10.2c-.3 0-.5.2-.5.5v7.4c0 .2.2.5.5.5H211c.3 0 .6-.3.6-.5V527zm-.5 10h-10.4a2.7 2.7 0 0 1-2.7-2.6V527c0-1.5 1.2-2.8 2.7-2.8h10.4c1.5 0 2.7 1.3 2.7 2.8v7.4c0 1.5-1.2 2.7-2.7 2.7m77.4-21.9a39 39 0 0 1 11.7-1.7c4.5 0 6.3 1.5 6.3 3.4 0 1.7-1.7 2.7-6.6 4.5-6.6 2.5-11.4 4.4-11.4 8.7 0 4.5 5.8 7.1 14.6 7.1a38 38 0 0 0 9.4-.9v-4.2c-3 .6-5.5 1.5-9.6 1.5-4.4 0-6.3-1.4-6.3-2.8 0-2 3-3 8-4.8 7-2.5 10.8-4.5 10.8-8.7 0-4.4-4.8-7.5-15.8-7.5-4.6 0-7.7.3-11.1.9v4.5zM265 533.5h-5.2v-19.9h5.2c8 0 13.1 3.5 13.1 9.9s-5 10-13 10m14-21.7c-2.6-1.2-7.5-2-11.8-2H251v27.3h16.3c4.3 0 9.2-.7 11.8-1.9 6.3-2.8 8.4-7.4 8.4-11.7 0-4.3-2-8.9-8.4-11.7m-39.6 13s7.6 1.2 7.6 6c0 4.6-8.1 6.5-16.8 6.5-7.8 0-13-1-13-1v-4.2c3.6.9 7 1.6 11.6 1.6 5 0 8.8-1.5 8.8-3.5 0-2.6-3.8-4-11.8-4h-3.7v-3.8h3.4c8.5 0 13.3-1.3 13.3-4.4 0-2.8-4.3-4.5-9.6-4.5-4.7 0-9 1-12.5 2v-4.6c1.7-.2 6.1-1.1 14.4-1.1 9.1 0 17 3 17 8 0 4.4-5.5 7-8.7 7"/>
  </g>
  <path d="M217.7 456.3h-2V451h2a2.6 2.6 0 0 1 0 5.3m-.1-7.2h-3.7v9h3.7c2.5 0 4.6-2 4.6-4.5s-2-4.5-4.6-4.5m-40.4-16.9h-10.5c-3.4 0-6.6-1.3-9-3.7a12.5 12.5 0 0 1-3.7-9v-35.3a12.6 12.6 0 0 1 12.7-12.7h10.5v60.7Zm5.3-66.5h-15.8a18.5 18.5 0 0 0-18.6 18.5v35.3c0 10.2 8.3 18.6 18.6 18.6h15.8c.3 0 .6-.3.6-.6v-71.3c0-.3-.3-.5-.6-.5m23.7 92.5v-9h-1.8v5.8l-4.5-5.9h-1.8v9h1.8v-6l4.5 6h1.8Zm-21.9 8.2h5.5v13.4h3.7v-13.4h5.3v-3.6h-14.5v3.6Zm26.3-.4c2 0 3.8 1 4.7 2.6l2.8-2.4a9 9 0 1 0 0 10.2l-2.8-2.4a5.5 5.5 0 0 1-4.7 2.6c-3 0-5.3-2.4-5.3-5.3 0-3 2.4-5.3 5.3-5.3m23 3.5h-8v-6.7H222v17h3.5V473h8v6.8h3.5v-17h-3.5v6.7Zm-.7-13a2.8 2.8 0 0 1-2.8-2.9c0-1.6 1.2-2.8 2.8-2.8a2.8 2.8 0 1 1 0 5.6m0-7.6a4.8 4.8 0 1 0 0 9.6 4.8 4.8 0 0 0 0-9.6m-42.3 7.7h-5.2v-2.1h4.8v-1.7h-4.8v-2h5.2v-1.6h-7v9h7v-1.6Zm-31.2-69.1a6.8 6.8 0 1 0 13.6 0 6.8 6.8 0 0 0-13.6 0m-21.2 82h-.1c-2.1-.3-4-.6-4-1.8-.1-.3-.1-.6.2-1 .6-.7 1.9-1 3.9-1 2.2 0 4.4.9 5.2 1.2l1.2-3a20 20 0 0 0-6.6-1.3c-3.7 0-7.6 1.8-7.6 5.1 0 2.8 1.9 4.1 6.8 5 3.4.6 5.3.9 5.3 2.4 0 .8-.7 2.2-4.6 2.2-3 0-5.3-1.2-6-1.6l-1.7 2.9c.9.4 3.8 1.8 7.5 1.8 5.4 0 8.3-1.9 8.3-5.5 0-2.5-1.3-4.2-7.8-5.3m-5.4-17.4 4.5 6h1.8v-9h-1.8v6l-4.5-6H131v9h1.8v-6Zm15.1-3h-2v9h2v-9Zm56.7-51a7.3 7.3 0 1 1 0 14.7 7.3 7.3 0 0 1 0-14.6M190.8 438H202c10.2 0 18.5-8.4 18.5-18.6v-35.3c0-10.2-8.3-18.5-18.5-18.5h-11.2c-.3 0-.5.2-.5.4v71.4c0 .3.2.6.5.6m-25.6 37-3.7-12.3h-3l-3.6 12.3-3.3-12.3H148l4.9 17h4l3.2-11.2 3.2 11.2h4.1l4.9-17h-3.8l-3.2 12.3Zm11.8-26h-7.7v1.9h2.9v7.2h2V451h2.8v-1.9Zm-20.4 3 4.5 6h1.8v-9H161v6l-4.4-6h-1.9v9h1.9v-6Zm19.8 27.7h3.8v-17h-3.8v17Z" class="st0"/>
  <path d="m72.3 375.3-7.5 29.4-6.6-25.2c-1-3-2.9-4.4-5.6-4.4-2.7 0-4.6 1.2-5.5 4.4-1 3.2-6.7 25.2-6.7 25.2l-7.5-29.4h-9l9.8 35c1 2.8 3.1 5.1 6.3 5.1 3.7 0 5.4-2.7 6.1-5.1.9-2.5 6.5-23.2 6.5-23.2l6.4 23.2c.8 2.4 2.4 5.1 6.2 5.1 3.2 0 5.4-2.4 6.4-5.1 1.2-3.7 9.7-35 9.7-35h-9Zm31 39.8h8.5v-27.6h-8.6v27.6Zm-1-37.2a4.9 4.9 0 0 0 5 4.8c3 0 5.2-2.1 5.2-5 0-2.6-2.2-4.7-5.1-4.7a4.9 4.9 0 0 0-5 4.9M85.8 415h8.6v-27.6h-8.6V415Zm-.8-37.2a4.9 4.9 0 0 0 5 4.8c3 0 5.1-2.1 5.1-5 0-2.6-2.2-4.7-5.1-4.7a4.9 4.9 0 0 0-4.9 4.9"/>
  <path fill-rule="evenodd" d="M468.6 448.6H446l-4 7.4h-5l16.6-31.4c.6-1 2.5-4.3 5.4-4.1 3 .1 4.2 2.4 4.8 3.3l17.1 32.2h-8.2l-4-7.4Zm-9.7-18c-.7-1.5-2.3-1.8-3.2-.2l-7.3 13.7h17.9l-7.4-13.5Zm-29-5.9v31h-7.3v-31h-14v-4.3H444v4.4h-14Zm-33.6-4h7.5v35.2h-7.5v-35.3ZM369.5 456c-3-.1-4.1-2.4-4.7-3.3l-17.1-32.2h8.2l13.7 25.5c.7 1.4 2.4 1.7 3.2 0l13.7-25.5h5.1L375 452c-.7 1-2.5 4.3-5.5 4.1Zm-43.1-25.8v16.1c0 6-2.7 9.6-10 9.6h-15.9v-4.4h13.9c2.8 0 4.5-2.3 4.5-5.2v-16.1c0-5.2 2.5-9.6 9.8-9.6h15.7v4.3h-13.6c-3.7-.1-4.4 2.9-4.4 5.3Zm-31 10h-17c-2.4 0-4 1.7-4 4.7v11H267v-10.5c0-6 3.8-10 9-10h17.2c4.2-.2 5.2-2.3 5.2-5.3 0-2.3-1.2-5.5-5.2-5.2H267v-4.3h28.3c7.4 0 10.4 4.3 10.4 9.5 0 6-3 10-10.4 10Z" clip-rule="evenodd"/>
  <path d="m50.7 434.3 5.8 7.1H44.8l-2.7 10.8H35l2.7-10.8h-7.2L25 463h14.4l-1.8 7.2h12.5L40.8 481h10.6l8.7-10.8H80l8.8 10.8h10.5l-9.4-10.8h12.6l-1.8-7.2H115l-5.4-21.6h-7.1l2.7 10.8H98l-2.7-10.8H83.5l5.8-7.1h-7.6l-6.3 7.1H64.6l-6.3-7.1h-7.6Zm.9 14.3h7.2v7.2h-7.2v-7.2Zm29.7 0h7.1v7.2h-7.1v-7.2Z"/>
  <g style="mix-blend-mode:normal">
    <path d="M334.8 45.7v30.5l-26.4 15.3V61ZM308.4 61V30.5L282 45.7z"/>
    <path d="M283.2 41.3a8.8 8.8 0 0 0-4.4 7.7v24a8.8 8.8 0 0 0 4.4 7.6l20.8 12a8.8 8.8 0 0 0 8.8 0l20.9-12A8.8 8.8 0 0 0 338 73V49a8.8 8.8 0 0 0-4.4-7.7l-20.9-12a8.8 8.8 0 0 0-8.8 0zm26.4-6.4 20.8 12a2.4 2.4 0 0 1 1.2 2V73c0 .8-.4 1.6-1.2 2l-20.8 12a2.4 2.4 0 0 1-2.4 0l-20.8-12a2.4 2.4 0 0 1-1.2-2V49c0-.9.5-1.7 1.2-2l20.8-12a2.4 2.4 0 0 1 2.4 0z"/>
    <path d="M93.2 188.3h3v-6h6v-2.5h-6v-3.5h6.6v-2.6h-9.6zm14.7-14.6h-3v14.6h3zm5.5 14.8c1.7 0 2.7-.7 3.2-1.7h.1v1.5h2.9V181c0-2.6-2.2-3.7-4.6-3.7-2.7 0-4.4 1.3-4.8 3.3l2.8.2c.2-.7.8-1.2 2-1.2 1 0 1.6.5 1.6 1.4 0 .7-.8.8-2.7 1-2.2.2-4.1 1-4.1 3.4 0 2.1 1.5 3.2 3.6 3.2zm.9-2c-1 0-1.6-.5-1.6-1.3 0-.9.7-1.3 1.8-1.5.6 0 1.7-.2 2-.4v1.1c0 1.2-.9 2-2.2 2zm13.5-9.1h-2v-2.6h-3.1v2.6h-1.5v2.3h1.5v5.7c0 2.1 1.4 3.2 3.6 3a6 6 0 0 0 1.7-.2l-.5-2.3-.7.1c-.6 0-1-.2-1-1v-5.3h2zm2 15h3v-5.8h.1c.4.9 1.3 2 3.1 2 2.5 0 4.5-2 4.5-5.7 0-3.8-2-5.7-4.5-5.7a3.2 3.2 0 0 0-3.1 2h-.1v-1.8h-3zm3-9.5c0-2 .8-3.2 2.2-3.2 1.6 0 2.3 1.3 2.3 3.2 0 1.9-.8 3.2-2.3 3.2-1.4 0-2.3-1.3-2.3-3.2zm12.8 5.6c1.6 0 2.7-.7 3.2-1.7v1.5h3V181c0-2.6-2.2-3.7-4.7-3.7-2.6 0-4.3 1.3-4.8 3.3l2.9.2c.2-.7.8-1.2 1.9-1.2 1 0 1.6.5 1.6 1.4 0 .7-.7.8-2.6 1-2.2.2-4.1 1-4.1 3.4 0 2.1 1.5 3.2 3.6 3.2zm.9-2c-1 0-1.6-.5-1.6-1.3 0-.9.7-1.3 1.7-1.5.7 0 1.8-.2 2.1-.4v1.1c0 1.2-.9 2-2.2 2zm7.6 1.8h3V185l.9-1 3 4.4h3.5l-4.2-6.2 4-4.7h-3.5l-3.5 4.1h-.1v-7.8h-3z" aria-label="Flatpak" font-family="Inter" font-size="28.5" font-weight="700" letter-spacing="0" style="line-height:1.25;text-align:center" text-anchor="middle" transform="translate(213.6 -19) scale(.74085)" word-spacing="0"/>
  </g>
</svg>
